[2026-03-15 12:06:51] [INFO] Jarvis Desktop launcher started.
[2026-03-15 12:06:51] [INFO] Runtime log path: C:\Jarvis\logs\runtime_2026-03-15_12-06-51.txt
[2026-03-15 12:06:51] [INFO] Launcher executable: C:\Users\anden\AppData\Local\Python\pythoncore-3.14-64\pythonw.exe
[2026-03-15 12:06:51] [INFO] Root directory: C:\Jarvis
[2026-03-15 12:06:51] [INFO] Target script: C:\Jarvis\jarvis_desktop_test.py
[2026-03-15 12:06:51] [INFO] Diagnostics script: C:\Jarvis\desktop\jarvis_diagnostics.pyw
[2026-03-15 12:06:51] [INFO] Recovery attempts allowed: 3
[2026-03-15 12:06:51] [INFO] Voice hook ready: C:\Jarvis\jarvis_voice.py
[2026-03-15 12:06:51] [INFO] Starting desktop renderer process. attempt=1
[2026-03-15 12:06:51] [INFO] Child executable: C:\Users\anden\AppData\Local\Python\pythoncore-3.14-64\pythonw.exe
[2026-03-15 12:06:51] [STDOUT] Jarvis Desktop Concept 1 - Version 1.02
[2026-03-15 12:06:51] [STDOUT] Hotkey: Ctrl + Alt + End
[2026-03-15 12:06:51] [STDERR] Traceback (most recent call last):
[2026-03-15 12:06:51] [STDERR]   File "C:\Jarvis\jarvis_desktop_test.py", line 44, in <module>
[2026-03-15 12:06:51] [STDERR]     raise SystemExit(main())
[2026-03-15 12:06:51] [STDERR]                      ~~~~^^
[2026-03-15 12:06:51] [STDERR]   File "C:\Jarvis\jarvis_desktop_test.py", line 36, in main
[2026-03-15 12:06:51] [STDERR]     raise RuntimeError("Jarvis test crash triggered intentionally")
[2026-03-15 12:06:51] [STDERR] RuntimeError: Jarvis test crash triggered intentionally
[2026-03-15 12:06:51] [INFO] Desktop renderer exited. exit_code=1
[2026-03-15 12:06:51] [WARN] Recovery attempt 1/3
[2026-03-15 12:06:52] [INFO] Starting desktop renderer process. attempt=2
[2026-03-15 12:06:52] [INFO] Child executable: C:\Users\anden\AppData\Local\Python\pythoncore-3.14-64\pythonw.exe
[2026-03-15 12:06:53] [STDOUT] Jarvis Desktop Concept 1 - Version 1.02
[2026-03-15 12:06:53] [STDOUT] Hotkey: Ctrl + Alt + End
[2026-03-15 12:06:53] [STDERR] Traceback (most recent call last):
[2026-03-15 12:06:53] [STDERR]   File "C:\Jarvis\jarvis_desktop_test.py", line 44, in <module>
[2026-03-15 12:06:53] [STDERR]     raise SystemExit(main())
[2026-03-15 12:06:53] [STDERR]                      ~~~~^^
[2026-03-15 12:06:53] [STDERR]   File "C:\Jarvis\jarvis_desktop_test.py", line 36, in main
[2026-03-15 12:06:53] [STDERR]     raise RuntimeError("Jarvis test crash triggered intentionally")
[2026-03-15 12:06:53] [STDERR] RuntimeError: Jarvis test crash triggered intentionally
[2026-03-15 12:06:53] [INFO] Desktop renderer exited. exit_code=1
[2026-03-15 12:06:53] [WARN] Recovery attempt 2/3
[2026-03-15 12:06:54] [INFO] Starting desktop renderer process. attempt=3
[2026-03-15 12:06:54] [INFO] Child executable: C:\Users\anden\AppData\Local\Python\pythoncore-3.14-64\pythonw.exe
[2026-03-15 12:06:54] [STDOUT] Jarvis Desktop Concept 1 - Version 1.02
[2026-03-15 12:06:54] [STDOUT] Hotkey: Ctrl + Alt + End
[2026-03-15 12:06:54] [STDERR] Traceback (most recent call last):
[2026-03-15 12:06:54] [STDERR]   File "C:\Jarvis\jarvis_desktop_test.py", line 44, in <module>
[2026-03-15 12:06:54] [STDERR]     raise SystemExit(main())
[2026-03-15 12:06:54] [STDERR]                      ~~~~^^
[2026-03-15 12:06:54] [STDERR]   File "C:\Jarvis\jarvis_desktop_test.py", line 36, in main
[2026-03-15 12:06:54] [STDERR]     raise RuntimeError("Jarvis test crash triggered intentionally")
[2026-03-15 12:06:54] [STDERR] RuntimeError: Jarvis test crash triggered intentionally
[2026-03-15 12:06:54] [INFO] Desktop renderer exited. exit_code=1
[2026-03-15 12:06:54] [ERROR] Crash log written: C:\Jarvis\logs\crash\crash_2026-03-15_12-06-54.txt
[2026-03-15 12:06:54] [INFO] Trying voice line 'Uhm..... Sir, I seem to be malfunctioning.' using voice --text --mode
[2026-03-15 12:07:01] [VOICE_STDERR] Input #0, wav, from 'C:/Users/anden/AppData/Local/Temp/tmpskxz6343.wav':
[2026-03-15 12:07:01] [VOICE_STDERR]   Metadata:
[2026-03-15 12:07:01] [VOICE_STDERR]     encoder         : Lavf62.13.100
[2026-03-15 12:07:01] [VOICE_STDERR]   Duration: 00:00:05.25, bitrate: 384 kb/s
[2026-03-15 12:07:01] [VOICE_STDERR]   Stream #0:0: Audio: pcm_s16le ([1][0][0][0] / 0x0001), 24000 Hz, 1 channels, s16, 384 kb/s
[2026-03-15 12:07:01] [INFO] Voice line completed: Uhm..... Sir, I seem to be malfunctioning.
[2026-03-15 12:07:01] [INFO] Failure voice step 1/3 success=True line=Uhm..... Sir, I seem to be malfunctioning.
[2026-03-15 12:07:02] [INFO] Trying voice line 'Attempting restart.' using voice --text --mode
[2026-03-15 12:07:06] [VOICE_STDERR] Input #0, wav, from 'C:/Users/anden/AppData/Local/Temp/tmp4ttd0qmk.wav':
[2026-03-15 12:07:06] [VOICE_STDERR]   Metadata:
[2026-03-15 12:07:06] [VOICE_STDERR]     encoder         : Lavf62.13.100
[2026-03-15 12:07:06] [VOICE_STDERR]   Duration: 00:00:02.78, bitrate: 384 kb/s
[2026-03-15 12:07:06] [VOICE_STDERR]   Stream #0:0: Audio: pcm_s16le ([1][0][0][0] / 0x0001), 24000 Hz, 1 channels, s16, 384 kb/s
[2026-03-15 12:07:06] [INFO] Voice line completed: Attempting restart.
[2026-03-15 12:07:06] [INFO] Failure voice step 2/3 success=True line=Attempting restart.
[2026-03-15 12:07:07] [INFO] Trying voice line 'Restart failed.' using voice --text --mode
[2026-03-15 12:07:11] [VOICE_STDERR] Input #0, wav, from 'C:/Users/anden/AppData/Local/Temp/tmp4vzwiasy.wav':
[2026-03-15 12:07:11] [VOICE_STDERR]   Metadata:
[2026-03-15 12:07:11] [VOICE_STDERR]     encoder         : Lavf62.13.100
[2026-03-15 12:07:11] [VOICE_STDERR]   Duration: 00:00:02.68, bitrate: 384 kb/s
[2026-03-15 12:07:11] [VOICE_STDERR]   Stream #0:0: Audio: pcm_s16le ([1][0][0][0] / 0x0001), 24000 Hz, 1 channels, s16, 384 kb/s
[2026-03-15 12:07:11] [INFO] Voice line completed: Restart failed.
[2026-03-15 12:07:11] [INFO] Failure voice step 3/3 success=True line=Restart failed.
[2026-03-15 12:07:12] [INFO] Diagnostics process launched.
